<mxfile host="app.diagrams.net" agent="Mozilla/5.0 (X11; Linux x86_64) AppleWebKit/537.36 (KHTML, like Gecko) Chrome/133.0.0.0 Safari/537.36" version="26.0.14" pages="2">
  <diagram name="theory" id="bOxaZ1qX3J5mrTr54-dK">
    <mxGraphModel dx="1120" dy="387" grid="0" gridSize="10" guides="1" tooltips="1" connect="1" arrows="1" fold="1" page="1" pageScale="1" pageWidth="850" pageHeight="1100" math="0" shadow="0">
      <root>
        <mxCell id="0" />
        <mxCell id="1" parent="0" />
        <mxCell id="Nnhj7Kdm857iKTXRWDws-1" value="Context" style="swimlane;fontStyle=1;align=center;verticalAlign=top;childLayout=stackLayout;horizontal=1;startSize=26;horizontalStack=0;resizeParent=1;resizeParentMax=0;resizeLast=0;collapsible=1;marginBottom=0;whiteSpace=wrap;html=1;" vertex="1" parent="1">
          <mxGeometry x="79" y="56" width="249" height="112" as="geometry" />
        </mxCell>
        <mxCell id="Nnhj7Kdm857iKTXRWDws-2" value="- strategy : IStrategy" style="text;strokeColor=none;fillColor=none;align=left;verticalAlign=top;spacingLeft=4;spacingRight=4;overflow=hidden;rotatable=0;points=[[0,0.5],[1,0.5]];portConstraint=eastwest;whiteSpace=wrap;html=1;" vertex="1" parent="Nnhj7Kdm857iKTXRWDws-1">
          <mxGeometry y="26" width="249" height="26" as="geometry" />
        </mxCell>
        <mxCell id="Nnhj7Kdm857iKTXRWDws-3" value="" style="line;strokeWidth=1;fillColor=none;align=left;verticalAlign=middle;spacingTop=-1;spacingLeft=3;spacingRight=3;rotatable=0;labelPosition=right;points=[];portConstraint=eastwest;strokeColor=inherit;" vertex="1" parent="Nnhj7Kdm857iKTXRWDws-1">
          <mxGeometry y="52" width="249" height="8" as="geometry" />
        </mxCell>
        <mxCell id="Nnhj7Kdm857iKTXRWDws-4" value="+ set_strategy(startegy ; iStrategy)" style="text;strokeColor=none;fillColor=none;align=left;verticalAlign=top;spacingLeft=4;spacingRight=4;overflow=hidden;rotatable=0;points=[[0,0.5],[1,0.5]];portConstraint=eastwest;whiteSpace=wrap;html=1;" vertex="1" parent="Nnhj7Kdm857iKTXRWDws-1">
          <mxGeometry y="60" width="249" height="26" as="geometry" />
        </mxCell>
        <mxCell id="Nnhj7Kdm857iKTXRWDws-5" value="+ execute( )" style="text;strokeColor=none;fillColor=none;align=left;verticalAlign=top;spacingLeft=4;spacingRight=4;overflow=hidden;rotatable=0;points=[[0,0.5],[1,0.5]];portConstraint=eastwest;whiteSpace=wrap;html=1;" vertex="1" parent="Nnhj7Kdm857iKTXRWDws-1">
          <mxGeometry y="86" width="249" height="26" as="geometry" />
        </mxCell>
        <mxCell id="Nnhj7Kdm857iKTXRWDws-6" value="IStrategy" style="swimlane;fontStyle=1;align=center;verticalAlign=top;childLayout=stackLayout;horizontal=1;startSize=26;horizontalStack=0;resizeParent=1;resizeParentMax=0;resizeLast=0;collapsible=1;marginBottom=0;whiteSpace=wrap;html=1;" vertex="1" parent="1">
          <mxGeometry x="514" y="50" width="160" height="86" as="geometry" />
        </mxCell>
        <mxCell id="Nnhj7Kdm857iKTXRWDws-7" value="- member attributes ..." style="text;strokeColor=none;fillColor=none;align=left;verticalAlign=top;spacingLeft=4;spacingRight=4;overflow=hidden;rotatable=0;points=[[0,0.5],[1,0.5]];portConstraint=eastwest;whiteSpace=wrap;html=1;" vertex="1" parent="Nnhj7Kdm857iKTXRWDws-6">
          <mxGeometry y="26" width="160" height="26" as="geometry" />
        </mxCell>
        <mxCell id="Nnhj7Kdm857iKTXRWDws-8" value="" style="line;strokeWidth=1;fillColor=none;align=left;verticalAlign=middle;spacingTop=-1;spacingLeft=3;spacingRight=3;rotatable=0;labelPosition=right;points=[];portConstraint=eastwest;strokeColor=inherit;" vertex="1" parent="Nnhj7Kdm857iKTXRWDws-6">
          <mxGeometry y="52" width="160" height="8" as="geometry" />
        </mxCell>
        <mxCell id="Nnhj7Kdm857iKTXRWDws-9" value="+ do_something( )" style="text;strokeColor=none;fillColor=none;align=left;verticalAlign=top;spacingLeft=4;spacingRight=4;overflow=hidden;rotatable=0;points=[[0,0.5],[1,0.5]];portConstraint=eastwest;whiteSpace=wrap;html=1;" vertex="1" parent="Nnhj7Kdm857iKTXRWDws-6">
          <mxGeometry y="60" width="160" height="26" as="geometry" />
        </mxCell>
        <mxCell id="Nnhj7Kdm857iKTXRWDws-10" value="ConcreteStartegy1" style="swimlane;fontStyle=1;align=center;verticalAlign=top;childLayout=stackLayout;horizontal=1;startSize=26;horizontalStack=0;resizeParent=1;resizeParentMax=0;resizeLast=0;collapsible=1;marginBottom=0;whiteSpace=wrap;html=1;" vertex="1" parent="1">
          <mxGeometry x="437" y="252" width="160" height="86" as="geometry" />
        </mxCell>
        <mxCell id="Nnhj7Kdm857iKTXRWDws-11" value="- member attributes ..." style="text;strokeColor=none;fillColor=none;align=left;verticalAlign=top;spacingLeft=4;spacingRight=4;overflow=hidden;rotatable=0;points=[[0,0.5],[1,0.5]];portConstraint=eastwest;whiteSpace=wrap;html=1;" vertex="1" parent="Nnhj7Kdm857iKTXRWDws-10">
          <mxGeometry y="26" width="160" height="26" as="geometry" />
        </mxCell>
        <mxCell id="Nnhj7Kdm857iKTXRWDws-12" value="" style="line;strokeWidth=1;fillColor=none;align=left;verticalAlign=middle;spacingTop=-1;spacingLeft=3;spacingRight=3;rotatable=0;labelPosition=right;points=[];portConstraint=eastwest;strokeColor=inherit;" vertex="1" parent="Nnhj7Kdm857iKTXRWDws-10">
          <mxGeometry y="52" width="160" height="8" as="geometry" />
        </mxCell>
        <mxCell id="Nnhj7Kdm857iKTXRWDws-13" value="+ do_something( )" style="text;strokeColor=none;fillColor=none;align=left;verticalAlign=top;spacingLeft=4;spacingRight=4;overflow=hidden;rotatable=0;points=[[0,0.5],[1,0.5]];portConstraint=eastwest;whiteSpace=wrap;html=1;" vertex="1" parent="Nnhj7Kdm857iKTXRWDws-10">
          <mxGeometry y="60" width="160" height="26" as="geometry" />
        </mxCell>
        <mxCell id="Nnhj7Kdm857iKTXRWDws-14" value="ConcreteStrategy2" style="swimlane;fontStyle=1;align=center;verticalAlign=top;childLayout=stackLayout;horizontal=1;startSize=26;horizontalStack=0;resizeParent=1;resizeParentMax=0;resizeLast=0;collapsible=1;marginBottom=0;whiteSpace=wrap;html=1;" vertex="1" parent="1">
          <mxGeometry x="618" y="252" width="160" height="86" as="geometry" />
        </mxCell>
        <mxCell id="Nnhj7Kdm857iKTXRWDws-15" value="- member attributes ..." style="text;strokeColor=none;fillColor=none;align=left;verticalAlign=top;spacingLeft=4;spacingRight=4;overflow=hidden;rotatable=0;points=[[0,0.5],[1,0.5]];portConstraint=eastwest;whiteSpace=wrap;html=1;" vertex="1" parent="Nnhj7Kdm857iKTXRWDws-14">
          <mxGeometry y="26" width="160" height="26" as="geometry" />
        </mxCell>
        <mxCell id="Nnhj7Kdm857iKTXRWDws-16" value="" style="line;strokeWidth=1;fillColor=none;align=left;verticalAlign=middle;spacingTop=-1;spacingLeft=3;spacingRight=3;rotatable=0;labelPosition=right;points=[];portConstraint=eastwest;strokeColor=inherit;" vertex="1" parent="Nnhj7Kdm857iKTXRWDws-14">
          <mxGeometry y="52" width="160" height="8" as="geometry" />
        </mxCell>
        <mxCell id="Nnhj7Kdm857iKTXRWDws-17" value="+ do_something( )" style="text;strokeColor=none;fillColor=none;align=left;verticalAlign=top;spacingLeft=4;spacingRight=4;overflow=hidden;rotatable=0;points=[[0,0.5],[1,0.5]];portConstraint=eastwest;whiteSpace=wrap;html=1;" vertex="1" parent="Nnhj7Kdm857iKTXRWDws-14">
          <mxGeometry y="60" width="160" height="26" as="geometry" />
        </mxCell>
        <mxCell id="Nnhj7Kdm857iKTXRWDws-20" value="" style="endArrow=diamondThin;endFill=1;endSize=24;html=1;rounded=0;" edge="1" parent="1" source="Nnhj7Kdm857iKTXRWDws-6" target="Nnhj7Kdm857iKTXRWDws-2">
          <mxGeometry width="160" relative="1" as="geometry">
            <mxPoint x="276" y="207" as="sourcePoint" />
            <mxPoint x="436" y="207" as="targetPoint" />
          </mxGeometry>
        </mxCell>
        <mxCell id="Nnhj7Kdm857iKTXRWDws-22" value="Use" style="endArrow=open;endSize=12;dashed=1;html=1;rounded=0;entryX=0;entryY=0.5;entryDx=0;entryDy=0;exitX=1;exitY=0.5;exitDx=0;exitDy=0;" edge="1" parent="1" source="Nnhj7Kdm857iKTXRWDws-5" target="Nnhj7Kdm857iKTXRWDws-9">
          <mxGeometry width="160" relative="1" as="geometry">
            <mxPoint x="276" y="207" as="sourcePoint" />
            <mxPoint x="436" y="207" as="targetPoint" />
          </mxGeometry>
        </mxCell>
        <mxCell id="z_a5Z6u-b__NpCj_Wwn6-1" value="" style="endArrow=block;dashed=1;endFill=0;endSize=12;html=1;rounded=0;exitX=0.5;exitY=0;exitDx=0;exitDy=0;" edge="1" parent="1" source="Nnhj7Kdm857iKTXRWDws-10" target="Nnhj7Kdm857iKTXRWDws-6">
          <mxGeometry width="160" relative="1" as="geometry">
            <mxPoint x="344" y="205" as="sourcePoint" />
            <mxPoint x="504" y="205" as="targetPoint" />
          </mxGeometry>
        </mxCell>
        <mxCell id="z_a5Z6u-b__NpCj_Wwn6-2" value="" style="endArrow=block;dashed=1;endFill=0;endSize=12;html=1;rounded=0;exitX=0.5;exitY=0;exitDx=0;exitDy=0;" edge="1" parent="1" source="Nnhj7Kdm857iKTXRWDws-14" target="Nnhj7Kdm857iKTXRWDws-6">
          <mxGeometry width="160" relative="1" as="geometry">
            <mxPoint x="344" y="205" as="sourcePoint" />
            <mxPoint x="504" y="205" as="targetPoint" />
          </mxGeometry>
        </mxCell>
        <mxCell id="QEPMBlRsA2LiiGkRAFgr-1" value="client" style="html=1;whiteSpace=wrap;" vertex="1" parent="1">
          <mxGeometry x="148.5" y="258" width="110" height="50" as="geometry" />
        </mxCell>
        <mxCell id="QEPMBlRsA2LiiGkRAFgr-2" value="Use" style="endArrow=open;endSize=12;dashed=1;html=1;rounded=0;exitX=0.5;exitY=0;exitDx=0;exitDy=0;" edge="1" parent="1" source="QEPMBlRsA2LiiGkRAFgr-1" target="Nnhj7Kdm857iKTXRWDws-1">
          <mxGeometry width="160" relative="1" as="geometry">
            <mxPoint x="344" y="205" as="sourcePoint" />
            <mxPoint x="504" y="205" as="targetPoint" />
          </mxGeometry>
        </mxCell>
      </root>
    </mxGraphModel>
  </diagram>
  <diagram id="lU4r9ZYWEXxVX44mhoQg" name="application1">
    <mxGraphModel dx="1120" dy="387" grid="0" gridSize="10" guides="1" tooltips="1" connect="1" arrows="1" fold="1" page="1" pageScale="1" pageWidth="850" pageHeight="1100" math="0" shadow="0">
      <root>
        <mxCell id="0" />
        <mxCell id="1" parent="0" />
        <mxCell id="v9bznX5p80oDc_zzkNtZ-1" value="ShoppingCart" style="swimlane;fontStyle=1;align=center;verticalAlign=top;childLayout=stackLayout;horizontal=1;startSize=26;horizontalStack=0;resizeParent=1;resizeParentMax=0;resizeLast=0;collapsible=1;marginBottom=0;whiteSpace=wrap;html=1;" vertex="1" parent="1">
          <mxGeometry x="49" y="56" width="279" height="138" as="geometry" />
        </mxCell>
        <mxCell id="v9bznX5p80oDc_zzkNtZ-2" value="- payment_mode : enum" style="text;strokeColor=none;fillColor=none;align=left;verticalAlign=top;spacingLeft=4;spacingRight=4;overflow=hidden;rotatable=0;points=[[0,0.5],[1,0.5]];portConstraint=eastwest;whiteSpace=wrap;html=1;" vertex="1" parent="v9bznX5p80oDc_zzkNtZ-1">
          <mxGeometry y="26" width="279" height="26" as="geometry" />
        </mxCell>
        <mxCell id="v9bznX5p80oDc_zzkNtZ-23" value="- payment_system : IPaymentSystem" style="text;strokeColor=none;fillColor=none;align=left;verticalAlign=top;spacingLeft=4;spacingRight=4;overflow=hidden;rotatable=0;points=[[0,0.5],[1,0.5]];portConstraint=eastwest;whiteSpace=wrap;html=1;" vertex="1" parent="v9bznX5p80oDc_zzkNtZ-1">
          <mxGeometry y="52" width="279" height="26" as="geometry" />
        </mxCell>
        <mxCell id="v9bznX5p80oDc_zzkNtZ-3" value="" style="line;strokeWidth=1;fillColor=none;align=left;verticalAlign=middle;spacingTop=-1;spacingLeft=3;spacingRight=3;rotatable=0;labelPosition=right;points=[];portConstraint=eastwest;strokeColor=inherit;" vertex="1" parent="v9bznX5p80oDc_zzkNtZ-1">
          <mxGeometry y="78" width="279" height="8" as="geometry" />
        </mxCell>
        <mxCell id="v9bznX5p80oDc_zzkNtZ-4" value="+ set_payment_system(sys : IPaymentSystem)" style="text;strokeColor=none;fillColor=none;align=left;verticalAlign=top;spacingLeft=4;spacingRight=4;overflow=hidden;rotatable=0;points=[[0,0.5],[1,0.5]];portConstraint=eastwest;whiteSpace=wrap;html=1;" vertex="1" parent="v9bznX5p80oDc_zzkNtZ-1">
          <mxGeometry y="86" width="279" height="26" as="geometry" />
        </mxCell>
        <mxCell id="v9bznX5p80oDc_zzkNtZ-5" value="+ execute_payment( )&amp;nbsp;" style="text;strokeColor=none;fillColor=none;align=left;verticalAlign=top;spacingLeft=4;spacingRight=4;overflow=hidden;rotatable=0;points=[[0,0.5],[1,0.5]];portConstraint=eastwest;whiteSpace=wrap;html=1;" vertex="1" parent="v9bznX5p80oDc_zzkNtZ-1">
          <mxGeometry y="112" width="279" height="26" as="geometry" />
        </mxCell>
        <mxCell id="v9bznX5p80oDc_zzkNtZ-6" value="IPaymentSystem" style="swimlane;fontStyle=1;align=center;verticalAlign=top;childLayout=stackLayout;horizontal=1;startSize=26;horizontalStack=0;resizeParent=1;resizeParentMax=0;resizeLast=0;collapsible=1;marginBottom=0;whiteSpace=wrap;html=1;" vertex="1" parent="1">
          <mxGeometry x="514" y="89" width="160" height="60" as="geometry" />
        </mxCell>
        <mxCell id="v9bznX5p80oDc_zzkNtZ-8" value="" style="line;strokeWidth=1;fillColor=none;align=left;verticalAlign=middle;spacingTop=-1;spacingLeft=3;spacingRight=3;rotatable=0;labelPosition=right;points=[];portConstraint=eastwest;strokeColor=inherit;" vertex="1" parent="v9bznX5p80oDc_zzkNtZ-6">
          <mxGeometry y="26" width="160" height="8" as="geometry" />
        </mxCell>
        <mxCell id="v9bznX5p80oDc_zzkNtZ-9" value="+ pay( )" style="text;strokeColor=none;fillColor=none;align=left;verticalAlign=top;spacingLeft=4;spacingRight=4;overflow=hidden;rotatable=0;points=[[0,0.5],[1,0.5]];portConstraint=eastwest;whiteSpace=wrap;html=1;" vertex="1" parent="v9bznX5p80oDc_zzkNtZ-6">
          <mxGeometry y="34" width="160" height="26" as="geometry" />
        </mxCell>
        <mxCell id="v9bznX5p80oDc_zzkNtZ-10" value="CreditCardSystem" style="swimlane;fontStyle=1;align=center;verticalAlign=top;childLayout=stackLayout;horizontal=1;startSize=26;horizontalStack=0;resizeParent=1;resizeParentMax=0;resizeLast=0;collapsible=1;marginBottom=0;whiteSpace=wrap;html=1;" vertex="1" parent="1">
          <mxGeometry x="425" y="257" width="160" height="60" as="geometry" />
        </mxCell>
        <mxCell id="v9bznX5p80oDc_zzkNtZ-12" value="" style="line;strokeWidth=1;fillColor=none;align=left;verticalAlign=middle;spacingTop=-1;spacingLeft=3;spacingRight=3;rotatable=0;labelPosition=right;points=[];portConstraint=eastwest;strokeColor=inherit;" vertex="1" parent="v9bznX5p80oDc_zzkNtZ-10">
          <mxGeometry y="26" width="160" height="8" as="geometry" />
        </mxCell>
        <mxCell id="v9bznX5p80oDc_zzkNtZ-13" value="+ pay( )" style="text;strokeColor=none;fillColor=none;align=left;verticalAlign=top;spacingLeft=4;spacingRight=4;overflow=hidden;rotatable=0;points=[[0,0.5],[1,0.5]];portConstraint=eastwest;whiteSpace=wrap;html=1;" vertex="1" parent="v9bznX5p80oDc_zzkNtZ-10">
          <mxGeometry y="34" width="160" height="26" as="geometry" />
        </mxCell>
        <mxCell id="v9bznX5p80oDc_zzkNtZ-14" value="NetBankSystem" style="swimlane;fontStyle=1;align=center;verticalAlign=top;childLayout=stackLayout;horizontal=1;startSize=26;horizontalStack=0;resizeParent=1;resizeParentMax=0;resizeLast=0;collapsible=1;marginBottom=0;whiteSpace=wrap;html=1;" vertex="1" parent="1">
          <mxGeometry x="618" y="257" width="160" height="60" as="geometry" />
        </mxCell>
        <mxCell id="v9bznX5p80oDc_zzkNtZ-16" value="" style="line;strokeWidth=1;fillColor=none;align=left;verticalAlign=middle;spacingTop=-1;spacingLeft=3;spacingRight=3;rotatable=0;labelPosition=right;points=[];portConstraint=eastwest;strokeColor=inherit;" vertex="1" parent="v9bznX5p80oDc_zzkNtZ-14">
          <mxGeometry y="26" width="160" height="8" as="geometry" />
        </mxCell>
        <mxCell id="v9bznX5p80oDc_zzkNtZ-17" value="+ pay( )" style="text;strokeColor=none;fillColor=none;align=left;verticalAlign=top;spacingLeft=4;spacingRight=4;overflow=hidden;rotatable=0;points=[[0,0.5],[1,0.5]];portConstraint=eastwest;whiteSpace=wrap;html=1;" vertex="1" parent="v9bznX5p80oDc_zzkNtZ-14">
          <mxGeometry y="34" width="160" height="26" as="geometry" />
        </mxCell>
        <mxCell id="v9bznX5p80oDc_zzkNtZ-21" value="Use" style="endArrow=open;endSize=12;dashed=1;html=1;rounded=0;entryX=0;entryY=0.5;entryDx=0;entryDy=0;exitX=1;exitY=0.5;exitDx=0;exitDy=0;" edge="1" parent="1" source="v9bznX5p80oDc_zzkNtZ-5" target="v9bznX5p80oDc_zzkNtZ-9">
          <mxGeometry width="160" relative="1" as="geometry">
            <mxPoint x="276" y="207" as="sourcePoint" />
            <mxPoint x="436" y="207" as="targetPoint" />
          </mxGeometry>
        </mxCell>
        <mxCell id="v9bznX5p80oDc_zzkNtZ-25" value="Application" style="html=1;whiteSpace=wrap;" vertex="1" parent="1">
          <mxGeometry x="130" y="257" width="110" height="50" as="geometry" />
        </mxCell>
        <mxCell id="v9bznX5p80oDc_zzkNtZ-26" value="" style="endArrow=diamondThin;endFill=0;endSize=24;html=1;rounded=0;entryX=1;entryY=0.5;entryDx=0;entryDy=0;" edge="1" parent="1" source="v9bznX5p80oDc_zzkNtZ-6" target="v9bznX5p80oDc_zzkNtZ-23">
          <mxGeometry width="160" relative="1" as="geometry">
            <mxPoint x="344" y="198" as="sourcePoint" />
            <mxPoint x="504" y="198" as="targetPoint" />
          </mxGeometry>
        </mxCell>
        <mxCell id="v9bznX5p80oDc_zzkNtZ-27" value="" style="endArrow=diamondThin;endFill=1;endSize=24;html=1;rounded=0;" edge="1" parent="1" source="v9bznX5p80oDc_zzkNtZ-1" target="v9bznX5p80oDc_zzkNtZ-25">
          <mxGeometry width="160" relative="1" as="geometry">
            <mxPoint x="152" y="247" as="sourcePoint" />
            <mxPoint x="312" y="247" as="targetPoint" />
          </mxGeometry>
        </mxCell>
        <mxCell id="v9bznX5p80oDc_zzkNtZ-28" value="" style="endArrow=block;dashed=1;endFill=0;endSize=12;html=1;rounded=0;" edge="1" parent="1" source="v9bznX5p80oDc_zzkNtZ-10">
          <mxGeometry width="160" relative="1" as="geometry">
            <mxPoint x="498" y="252" as="sourcePoint" />
            <mxPoint x="575" y="149" as="targetPoint" />
            <Array as="points">
              <mxPoint x="505" y="191" />
              <mxPoint x="575" y="191" />
            </Array>
          </mxGeometry>
        </mxCell>
        <mxCell id="v9bznX5p80oDc_zzkNtZ-29" value="" style="endArrow=block;dashed=1;endFill=0;endSize=12;html=1;rounded=0;exitX=0.5;exitY=0;exitDx=0;exitDy=0;entryX=0.585;entryY=1.115;entryDx=0;entryDy=0;entryPerimeter=0;" edge="1" parent="1" source="v9bznX5p80oDc_zzkNtZ-14" target="v9bznX5p80oDc_zzkNtZ-9">
          <mxGeometry width="160" relative="1" as="geometry">
            <mxPoint x="620" y="220" as="sourcePoint" />
            <mxPoint x="506" y="206" as="targetPoint" />
            <Array as="points">
              <mxPoint x="698" y="194" />
              <mxPoint x="608" y="194" />
            </Array>
          </mxGeometry>
        </mxCell>
      </root>
    </mxGraphModel>
  </diagram>
</mxfile>
